<?xml version="1.0" encoding="utf-8"?>
<!-- Generator: $$$/GeneralStr/196=Adobe Illustrator 27.6.0, SVG Export Plug-In . SVG Version: 6.00 Build 0)  -->
<svg version="1.1" xmlns="http://www.w3.org/2000/svg" xmlns:xlink="http://www.w3.org/1999/xlink" x="0px" y="0px"
	 viewBox="0 0 2654.67 2726.79" style="enable-background:new 0 0 2654.67 2726.79;" xml:space="preserve">
<style type="text/css">
	.st0{clip-path:url(#SVGID_00000075869659326685353820000015456438844784921223_);}
	.st1{fill:url(#SVGID_1_);}
	.st2{opacity:0.8;clip-path:url(#SVGID_00000132079676495633083650000008427342170317934475_);}
	.st3{fill:#FCFDFE;}
	
		.st4{clip-path:url(#SVGID_00000062886511314372370290000000406955575268940167_);fill:url(#SVGID_00000147931128867820701390000000065818140860635287_);}
	.st5{opacity:0.8;clip-path:url(#SVGID_00000062886511314372370290000000406955575268940167_);}
	.st6{fill:url(#SVGID_00000088818043135089987170000001717692606616075922_);}
	.st7{fill:#26264F;}
	.st8{fill:url(#SVGID_00000056399802664133279280000003674725585748004002_);}
	.st9{fill:url(#SVGID_00000007402078291315707780000006836154044137670841_);}
	.st10{fill:url(#SVGID_00000001633410236799776380000010375094803109384091_);}
	.st11{fill:url(#SVGID_00000108266902813094447620000003772793322327954341_);}
	.st12{fill:url(#SVGID_00000148658825915781632380000005152483722775781010_);}
	.st13{fill:url(#SVGID_00000057834648302495245570000008207954529901659782_);}
	.st14{fill:url(#SVGID_00000054235737006764356560000000004232585181965992_);}
	.st15{opacity:0.3;fill:url(#SVGID_00000144297133441923946410000002234213552411885759_);}
	.st16{fill:url(#SVGID_00000104683484310389803670000014234553871960097689_);}
	.st17{fill:url(#SVGID_00000078036096139834921140000013798568164797401252_);}
	.st18{fill:url(#SVGID_00000139255013608966213040000003720951235888287160_);}
	.st19{fill:url(#SVGID_00000088817549778765828290000016420792258982237856_);}
	.st20{fill:url(#SVGID_00000178921760855594985270000008689650875285496455_);}
	.st21{fill:url(#SVGID_00000119103605811467996500000009983458563213659055_);}
	.st22{fill:url(#SVGID_00000043450006767450625150000009682019443298594741_);}
	.st23{fill:url(#SVGID_00000103232458068193991790000002282807178056054943_);}
	.st24{fill:url(#SVGID_00000083772206914037011670000004134683028750577288_);}
	.st25{opacity:0.3;fill:url(#SVGID_00000074425721524592711990000009986298684063906230_);}
	.st26{fill:#D8DEE8;}
	.st27{fill:url(#SVGID_00000085245207943549028190000004348890006941558697_);}
	.st28{fill:#F4F7FA;}
	.st29{fill:url(#SVGID_00000017504139953525027000000001182034686552410291_);}
	.st30{fill:url(#SVGID_00000042728430276591661940000004131713855006010521_);}
	.st31{fill:url(#SVGID_00000005234091530469965280000002497801580354866339_);}
	.st32{fill:url(#SVGID_00000178921361436661896570000001439000556328812201_);}
	.st33{fill:url(#SVGID_00000130625564795812116830000017513493824410165655_);}
	.st34{fill:url(#SVGID_00000180353624580634242010000014696683202815512734_);}
	.st35{fill:url(#SVGID_00000108272168396747808300000015091787833143584404_);}
	.st36{fill:url(#SVGID_00000030472533212105506830000006724724486128131222_);}
	.st37{fill:url(#SVGID_00000168098550547128144830000013648693271883022734_);}
	.st38{opacity:0.5;fill:#FFFFFF;}
	.st39{opacity:0.3;fill:url(#SVGID_00000107578385195438850490000007370418468454657960_);}
	.st40{fill:url(#SVGID_00000005261742033198749100000001452144789129720981_);}
	.st41{fill:url(#SVGID_00000016789983365225706780000010625953816089354412_);}
	.st42{fill:url(#SVGID_00000183246906798626125180000004715577341943413904_);}
	.st43{fill:url(#SVGID_00000176038699169193698650000017456807194783201933_);}
	.st44{fill:url(#SVGID_00000096018638467793079590000006482622630967509128_);}
	.st45{fill:url(#SVGID_00000046334728732483587330000001917743025601773696_);}
	.st46{fill:url(#SVGID_00000024702476963667109590000002014452139421757074_);}
	.st47{fill:url(#SVGID_00000050626530055104307700000011320646849817916575_);}
	.st48{opacity:0.3;fill:url(#SVGID_00000133493750729899983810000013456455279489195920_);}
	.st49{fill:url(#SVGID_00000094587175757422443260000014763408107693182122_);}
	.st50{fill:url(#SVGID_00000108992811058389934410000004591832894790427815_);}
	.st51{fill:url(#SVGID_00000008827079808521275320000012189375979286122666_);}
	.st52{fill:#FFFFFF;}
	.st53{opacity:0.6;fill:#FFFFFF;}
</style>
<g id="Background">
</g>
<g id="Illustration">
	<g>
		<g>
			<defs>
				<rect id="SVGID_13_" x="959.37" y="747.3" width="1695.29" height="1864.1"/>
			</defs>
			<clipPath id="SVGID_00000162340722295917868490000017234560011774419602_">
				<use xlink:href="#SVGID_13_"  style="overflow:visible;"/>
			</clipPath>
			<g style="clip-path:url(#SVGID_00000162340722295917868490000017234560011774419602_);">
				<g>
					<g>
						
							<linearGradient id="SVGID_1_" gradientUnits="userSpaceOnUse" x1="-5127.1572" y1="-3812.7012" x2="-4552.6309" y2="-139.8272" gradientTransform="matrix(-0.583 -0.8125 -0.8125 0.583 -3380.6824 -119.9383)">
							<stop  offset="3.597120e-03" style="stop-color:#E38DDD"/>
							<stop  offset="1" style="stop-color:#9571F6"/>
						</linearGradient>
						<path class="st1" d="M1151.88,2891.39c-19.01-8.98-52.45-45.29-57.27-58.35c-32.04-86.91-102.61-245.72-67.04-336.95
							c6.07-15.58,81.83-7.36,96.49-18.72c49.57-6.48,67.17-5.66,111.27-34.97c130.19-86.54-10.03-373.5,260.32-370.94
							c198.02,1.87,329.85,112.95,400.82-172.44c70.97-285.39,456.89-722.42,688.64-432.35c133,166.48-115.52,348.28-85.13,551.53
							c28.88,193.14-85.97,307.29-295.02,349.95c-209.05,42.66-139.47,149.97-139.26,324.7c0.25,209.89-302.79,149.01-440.3,108.97
							C1514.66,2769.58,1210.94,2762.19,1151.88,2891.39z"/>
						<g>
							<defs>
								<path id="SVGID_16_" d="M990.41,2457.52c0.16,144.55-5.63,291.65-6.26,437.22c76.17,31.65,166.54,67.02,214.96-23.55
									c67.33-125.92,316.13-102.35,426.6-69.55c136.73,40.6,440.42,100.9,440.01-108.83c-0.34-174.6-69.78-282.05,139.25-324.67
									c209.03-42.63,323.85-156.81,295.01-349.95c-30.35-203.26,218.09-384.96,85.13-551.52
									c-231.67-290.23-617.83,147.23-688.56,432.25c-70.72,285.03-203.64,175.43-400.69,172.27
									c-269.01-4.32-133.7,289.1-259,368.91C1138.65,2502.67,1088.05,2469.07,990.41,2457.52z"/>
							</defs>
							<clipPath id="SVGID_00000178200831364466766200000000560051940757040769_">
								<use xlink:href="#SVGID_16_"  style="overflow:visible;"/>
							</clipPath>
							<g style="opacity:0.8;clip-path:url(#SVGID_00000178200831364466766200000000560051940757040769_);">
								<path class="st3" d="M1060.92,2672.95l-0.5-3.56c175.07-24.77,343.72-76.09,501.28-152.56
									c151.4-73.48,292.8-170.22,420.26-287.54c247.49-227.8,438.48-529.58,552.32-872.7l3.41,1.13
									c-114.04,343.7-305.37,646-553.3,874.21c-127.72,117.56-269.4,214.5-421.12,288.13
									C1405.37,2596.69,1236.36,2648.13,1060.92,2672.95z"/>
								<path class="st3" d="M2076.07,2779.72c-152.29-111.03-436.77-204.75-634.16-208.94l0.08-3.59
									c198.01,4.2,483.41,98.23,636.2,209.63L2076.07,2779.72z"/>
								<path class="st3" d="M1194.46,2652.51l-1.47-3.28c93.73-42.01,162.61-129.77,204.74-260.84
									c30.87-96.06,46.92-212.72,47.7-346.74l3.59,0.02c-0.78,134.39-16.89,251.42-47.87,347.82
									C1358.7,2521.57,1289.16,2610.07,1194.46,2652.51z"/>
								<path class="st3" d="M2018.43,2198.1l-1.63-3.2c172.25-88.1,373.97-61.3,512.86-23.32l-0.95,3.47
									C2390.43,2137.23,2189.66,2110.53,2018.43,2198.1z"/>
								<path class="st3" d="M2300.38,1856.53l-3.33-1.35c35.21-86.82,79.28-272.05-21.21-537.09l3.36-1.27
									c33.92,89.47,54.79,182.55,60.34,269.17C2345.94,1685.67,2332.76,1776.69,2300.38,1856.53z"/>
							</g>
						</g>
					</g>
				</g>
				<g>
					<g>
						<defs>
							<path id="SVGID_20_" d="M1620.59,3129.94c-105.77-15.55-211.44-33.54-316.91-53.95c-1.72,1.55-36.39-228.36,72.82-348.94
								c215.96-233.58,70.49-443.22,29-567.44c-66.41-175.17-32.37-388.06,160.56-348.19c187.96,34.34,216.47-352.61,184.03-650.71
								c-27.69-145.09,109.21-321.13,245.82-361.36c139.46-44.57,278.63,46.66,321.28,335.86
								c64.57,334.85-179.8,536.78-270.29,704.66c-89.04,164.8,118.09,298.15-48.63,444.17c-140.23,129.75-316.96,223.02-252.31,386
								C1812.38,2831.18,1796.48,2962.92,1620.59,3129.94z"/>
						</defs>
						<clipPath id="SVGID_00000032618306259541302700000010795139673038986173_">
							<use xlink:href="#SVGID_20_"  style="overflow:visible;"/>
						</clipPath>
						
							<linearGradient id="SVGID_00000118370075271263586700000018159614646304294819_" gradientUnits="userSpaceOnUse" x1="-642.8155" y1="-1360.7145" x2="-1402.2765" y2="797.7554" gradientTransform="matrix(-0.8674 -0.4976 -0.4976 0.8674 761.6117 1706.8157)">
							<stop  offset="0" style="stop-color:#FFC444"/>
							<stop  offset="0.9964" style="stop-color:#F36F56"/>
						</linearGradient>
						
							<path style="clip-path:url(#SVGID_00000032618306259541302700000010795139673038986173_);fill:url(#SVGID_00000118370075271263586700000018159614646304294819_);" d="
							M1620.59,3129.94c-105.77-15.55-211.44-33.54-316.91-53.95c-1.72,1.55-36.39-228.36,72.82-348.94
							c215.96-233.58,70.49-443.22,29-567.44c-65.74-175.04-31.16-364.58,146.99-367.38c197.59-6.98,233.41-334.02,197.6-631.52
							c-27.69-145.09,109.21-321.13,245.82-361.36c139.46-44.57,278.63,46.66,321.28,335.86
							c64.57,334.85-179.8,536.78-270.29,704.66c-89.04,164.8,118.09,298.15-48.63,444.17c-140.23,129.75-316.96,223.02-252.31,386
							C1812.38,2831.18,1796.48,2962.92,1620.59,3129.94z"/>
						<g style="opacity:0.8;clip-path:url(#SVGID_00000032618306259541302700000010795139673038986173_);">
							<path class="st3" d="M1478.78,3143.56l-3.59-0.04c-0.03-2.04,101.02-485.58,275.32-956.35
								c24.07-76.24,50.22-153.12,75.51-227.46c67.72-199.09,137.74-404.96,171-609.96c37.17-229.16,23.92-435.56-40.51-631
								l3.41-1.13c64.62,196,77.91,402.95,40.64,632.7c-33.3,205.29-103.38,411.31-171.15,610.54
								c-25.28,74.33-51.42,151.19-75.51,227.47C1580.24,2657.41,1479.01,3140.82,1478.78,3143.56z"/>
							<path class="st3" d="M1951.89,1574.62l-2.67-2.4c117.93-131.02,260.21-317.22,336.64-417.25
								c59.64-78.05,61.74-80.23,64.05-79.86l-0.55,3.55l0.28-1.77l0.68,1.62c-3,1.97-28.86,35.81-61.6,78.64
								C2212.25,1257.21,2069.91,1443.49,1951.89,1574.62z"/>
							<path class="st3" d="M1988.14,1395.1c-24.44-150.45-86.45-249.36-134.16-305.84c-53.14-62.91-101.02-89.41-105.84-89.85
								c0,0,0.36,0.03,0.78-0.25l-2-2.98c0.94-0.63,2.17-0.44,4.87,0.73c13.04,5.67,61.76,36.15,112.9,99.71
								c64.42,80.07,108.34,183.09,126.99,297.91L1988.14,1395.1z"/>
							<path class="st3" d="M1650.4,2494.95l-3.57-0.42c16.64-139.77-15.93-290.11-96.8-446.84
								c-42.17-81.73-95.95-161.79-159.84-237.97c-4.42-5.27-6.23-7.44-6.74-8.31l3.11-1.8c0.37,0.64,3.02,3.8,6.38,7.8
								c64.06,76.38,117.99,156.66,160.28,238.62C1634.43,2203.41,1667.12,2354.45,1650.4,2494.95z"/>
							<path class="st3" d="M1698.11,2347.72l-3.06-1.89c126.72-204.73,393.81-218.98,396.1-218.27l1.34,1.68l-1.23,1.77l-0.56-1.68
								l-0.17,1.75c-0.01,0-0.03,0-0.05,0C2085.79,2131.08,1823.74,2144.76,1698.11,2347.72z M2090.11,2127.61l0.57,1.7
								L2090.11,2127.61z"/>
							<path class="st3" d="M1523.31,2950.03l-3.45-1c13.39-46.2,66.11-136.74,268.73-223.97c2.81-1.21,4.63-1.99,5.27-2.32
								l1.64,3.2c-0.67,0.35-2.56,1.16-5.49,2.42C1588.74,2815,1536.52,2904.43,1523.31,2950.03z"/>
						</g>
					</g>
				</g>
			</g>
		</g>
		<g>
			<g>
				<g>
					
						<linearGradient id="SVGID_00000054239761289803853380000010563494650858572709_" gradientUnits="userSpaceOnUse" x1="2180.4895" y1="275.271" x2="1492.1526" y2="241.4178">
						<stop  offset="0" style="stop-color:#FFC444"/>
						<stop  offset="0.9964" style="stop-color:#F36F56"/>
					</linearGradient>
					<path style="fill:url(#SVGID_00000054239761289803853380000010563494650858572709_);" d="M1488.31,47.2
						c116.26-49.03,227.13-35.81,282.48-14.97c65.44,24.63,87.15,43.11,145.08,52.41c51.49,8.27,104.94-45.44,145.08-7.49
						c2.7,2.56,6.03,5.74,9.76,11.23c28.75,42.26-5.21,93.3,4.19,182.49c4.81,45.63,16.44,58.29,27.2,145.99
						c4.09,33.35,3.24,38.26,2.09,42.11c-17.59,59.17-157.09,47.99-255.28,22.46c-135.37-35.2-178.95-94.24-267.84-67.38
						c-41,12.39-72.16,37.17-92.07,56.15C1498.08,329.82,1479.24,187.58,1488.31,47.2z"/>
					<g>
						<path class="st7" d="M1489.78,1364.47c-3.02,0-5.47-2.45-5.47-5.47V5.47c0-3.02,2.45-5.47,5.47-5.47
							c3.02,0,5.47,2.45,5.47,5.47v1353.52C1495.25,1362.02,1492.8,1364.47,1489.78,1364.47z"/>
					</g>
				</g>
			</g>
			<g>
				
					<linearGradient id="SVGID_00000170956683352044605680000000714333974550619020_" gradientUnits="userSpaceOnUse" x1="137.5139" y1="1241.7192" x2="161.0952" y2="1313.6935" gradientTransform="matrix(0.444 0.896 -0.896 0.444 2554.2627 -201.4286)">
					<stop  offset="0" style="stop-color:#FFC444"/>
					<stop  offset="0.9964" style="stop-color:#F36F56"/>
				</linearGradient>
				<path style="fill:url(#SVGID_00000170956683352044605680000000714333974550619020_);" d="M1465.78,507.54l9.79-13.65
					c0,0-1.88-7.16,1.3-12.41c3.18-5.25,3.18-5.25,3.18-5.25s4.15-3.89,12.09-1.17c1.8,0.62,3.78,0.41,5.34-0.66
					c4.69-3.24,5.94,5.68,5.94,5.68s3.39,3.97,0.35,7.42c0,0-0.4,5.08-4.19,7.69c-3.79,2.61-13.94,6.9-13.94,6.9l-10.94,13.17
					L1465.78,507.54z"/>
				
					<linearGradient id="SVGID_00000161593342837197185600000013332663636137183108_" gradientUnits="userSpaceOnUse" x1="-155.6316" y1="2024.8042" x2="122.2985" y2="1382.6165" gradientTransform="matrix(0.444 0.896 -0.896 0.444 2554.2627 -201.4286)">
					<stop  offset="0" style="stop-color:#FF9085"/>
					<stop  offset="1" style="stop-color:#FB6FBB"/>
				</linearGradient>
				<path style="fill:url(#SVGID_00000161593342837197185600000013332663636137183108_);" d="M1464.23,493.14
					c-70.02,27.88-114.95,16.97-135.9,9.11c-26.3-9.87-51.51-27.99-51.51-27.99c-35.6-25.59-49.54-51.05-84.64-56.57
					c-2.65-0.42-10.48-1.51-19.09-0.75c-50.62,4.48-106.97,71.47-99.73,116.02c12.56,77.24,227.6,156.79,345.69,70.81
					c38.02-27.68,57.05-66.01,66.76-92.04C1478.62,505.53,1471.42,499.33,1464.23,493.14z"/>
				
					<linearGradient id="SVGID_00000032639952925381548110000012531567063269955486_" gradientUnits="userSpaceOnUse" x1="280.4158" y1="1384.7734" x2="335.9482" y2="1384.7734" gradientTransform="matrix(-0.996 0.0897 0.0897 0.996 1214.0879 -104.599)">
					<stop  offset="0" style="stop-color:#444B8C"/>
					<stop  offset="0.9964" style="stop-color:#26264F"/>
				</linearGradient>
				<path style="fill:url(#SVGID_00000032639952925381548110000012531567063269955486_);" d="M1007.09,1291.57
					c-2.88,2.65-3.06,8.84-3.18,12.88c-0.05,1.81-0.08,2.71,0.16,3.33c1.75,4.54,10.75,4.48,24.92,5.06
					c22.39,0.92,29.11,2.26,30.65-1.15c1.44-3.2-2.82-8.04-3.29-8.57c-2.57-2.86-5.58-3.78-11.36-5.3
					c-10.71-2.81-17.91-4.27-20.1-4.72C1011.26,1290.34,1008.98,1289.83,1007.09,1291.57z"/>
				
					<linearGradient id="SVGID_00000114780741628103185400000010906764082077907120_" gradientUnits="userSpaceOnUse" x1="-150.2723" y1="1332.7084" x2="-125.9082" y2="1282.2804" gradientTransform="matrix(-0.9976 0.0694 0.0694 0.9976 784.8807 -17.0359)">
					<stop  offset="0" style="stop-color:#FFC444"/>
					<stop  offset="0.9964" style="stop-color:#F36F56"/>
				</linearGradient>
				<path style="fill:url(#SVGID_00000114780741628103185400000010906764082077907120_);" d="M1022.79,1269.25l0.87,25.48
					c-0.7,1.19-8.43,4.46-14.25,0.99l-4.39-25.24L1022.79,1269.25z"/>
				
					<linearGradient id="SVGID_00000052068183096732403400000016460202694621649037_" gradientUnits="userSpaceOnUse" x1="-133.4982" y1="1441.781" x2="-74.4989" y2="1441.781" gradientTransform="matrix(-0.977 0.2133 0.2133 0.977 812.4727 -85.9714)">
					<stop  offset="0" style="stop-color:#444B8C"/>
					<stop  offset="0.9964" style="stop-color:#26264F"/>
				</linearGradient>
				<path style="fill:url(#SVGID_00000052068183096732403400000016460202694621649037_);" d="M1195.65,1291.91
					c-3.85,3.82-5.07,11.17-2.11,14.98c2.91,3.75,7.73,1.31,20.96,2.41c14.17,1.18,17.69,4.73,27.48,2.59
					c3.95-0.87,10.97-3.11,10.99-5.9c0.01-1.96-3.44-3.16-14.93-7.7c-16.31-6.45-16.22-6.75-19.72-7.52
					C1209.55,1288.82,1200.73,1286.87,1195.65,1291.91z"/>
				
					<linearGradient id="SVGID_00000023962774542078505470000015345653646799663498_" gradientUnits="userSpaceOnUse" x1="-245.0965" y1="1392.4207" x2="-220.2167" y2="1340.9252" gradientTransform="matrix(-0.9894 0.1453 0.1453 0.9894 769.9383 -40.6774)">
					<stop  offset="0" style="stop-color:#FFC444"/>
					<stop  offset="0.9964" style="stop-color:#F36F56"/>
				</linearGradient>
				<path style="fill:url(#SVGID_00000023962774542078505470000015345653646799663498_);" d="M1205.98,1269.25l5.85,24.06
					c-0.61,1.24-8.07,5.09-14.13,2.08l-9.34-23.55L1205.98,1269.25z"/>
				
					<linearGradient id="SVGID_00000114771296895317882670000016939933136512991423_" gradientUnits="userSpaceOnUse" x1="1567.7023" y1="1100.7441" x2="1410.3398" y2="746.0117" gradientTransform="matrix(0.9986 0.0533 -0.0533 0.9986 -270.632 14.4776)">
					<stop  offset="0" style="stop-color:#311944"/>
					<stop  offset="1" style="stop-color:#893976"/>
				</linearGradient>
				<path style="fill:url(#SVGID_00000114771296895317882670000016939933136512991423_);" d="M1170.42,747.33
					c-3.23,79.63-2.58,169.38,5.26,267.28c7.75,96.76,21.16,184.52,36.76,261.9c-9.21,1.96-18.42,3.92-27.64,5.87
					c-21.89-22.71-49.15-58.08-60.62-106.62c-7.12-30.13-3.4-45.21-6.98-81.99c-5.69-58.56-21.87-89.94-37.77-137.77
					c-14.29-42.98-30.54-105.8-36.61-188.93C1085.36,760.49,1127.89,753.91,1170.42,747.33z"/>
				
					<linearGradient id="SVGID_00000088826226958667999740000014307414247556586167_" gradientUnits="userSpaceOnUse" x1="1543.299" y1="1111.5688" x2="1385.9368" y2="756.8369" gradientTransform="matrix(0.9986 0.0533 -0.0533 0.9986 -270.632 14.4776)">
					<stop  offset="0" style="stop-color:#311944"/>
					<stop  offset="1" style="stop-color:#893976"/>
				</linearGradient>
				<path style="opacity:0.3;fill:url(#SVGID_00000088826226958667999740000014307414247556586167_);" d="M1157.7,1119.45
					c-10.14-40.17-29.68-50.79-30.38-88.71c-0.49-26.82,9.15-29.01,8.51-54.68c-0.97-38.94-23.78-59.36-35.24-83.85
					c-12.1-25.87-16.74-67.42,15.88-136.53c-24.55,3.8-49.09,7.6-73.64,11.39c6.07,83.13,22.32,145.95,36.61,188.93
					c15.9,47.83,32.08,79.21,37.77,137.77c3.57,36.78-0.14,51.87,6.98,81.99c11.47,48.54,38.73,83.91,60.62,106.62
					c2.34-0.5,4.69-1,7.03-1.49c-23.67-28.25-32.02-53.48-34.14-73.95C1154.25,1173.64,1167.93,1159.95,1157.7,1119.45z"/>
				
					<linearGradient id="SVGID_00000005254083019771119180000005672094732585999292_" gradientUnits="userSpaceOnUse" x1="1183.9298" y1="1255.6155" x2="1026.5635" y2="900.8741" gradientTransform="matrix(0.9976 -0.0694 0.0694 0.9976 -120.6004 46.4585)">
					<stop  offset="0" style="stop-color:#311944"/>
					<stop  offset="1" style="stop-color:#893976"/>
				</linearGradient>
				<path style="fill:url(#SVGID_00000005254083019771119180000005672094732585999292_);" d="M1078.35,742.35
					c-10.96,100.9-21.04,203.74-30.11,308.47c-6.8,78.59-12.86,156.21-18.23,232.84c-9.34,0.65-18.68,1.3-28.01,1.95
					c-8.07-17.17-18.62-43.32-25.02-76.45c-7.79-40.25-4.23-63.71-6.38-105.11c-2.41-46.43-8.95-56.87-18.38-115.78
					c-19.14-119.56-28.71-179.34,1.64-214.58C963.72,762.25,994.21,733.85,1078.35,742.35z"/>
				
					<linearGradient id="SVGID_00000147197166015578443800000010867480734427812521_" gradientUnits="userSpaceOnUse" x1="936.1719" y1="808.004" x2="1176.7802" y2="252.0525">
					<stop  offset="0" style="stop-color:#FF9085"/>
					<stop  offset="1" style="stop-color:#FB6FBB"/>
				</linearGradient>
				<path style="fill:url(#SVGID_00000147197166015578443800000010867480734427812521_);" d="M836.53,428.58
					c50.44-17.1,127.4-36.05,221.53-32.17c54.53,2.25,101.4,11.6,138.55,22.01c5.02,28.09,10.04,56.17,15.07,84.26
					c1.15,28.16,1.53,66.31-1.64,111.38c-3.16,45.07-6.26,45.75-13.51,109.37c-11.82,103.73-6.88,130.83-27.72,143.29
					c-13.56,8.1-18.46-1.68-87.66-8.54c-46.4-4.6-70.07-6.74-93.57,1.21c-31.99,10.83-42.7,29-55.9,23.09
					c-12.66-5.67-14.27-27.52-15.8-65.62c-2.36-58.77-2.21-98.72-2.43-113.01c-1-65.6-17.61-115.7-38.89-179.85
					C861.25,483.88,847.24,451.4,836.53,428.58z"/>
				<g>
					
						<linearGradient id="SVGID_00000031179772752684246090000018140175693124333980_" gradientUnits="userSpaceOnUse" x1="1246.1525" y1="-159.2076" x2="1252.3464" y2="-324.1947" gradientTransform="matrix(0.8944 0.4471 -0.4471 0.8944 -167.1928 43.7468)">
						<stop  offset="0" style="stop-color:#FFC444"/>
						<stop  offset="0.9964" style="stop-color:#F36F56"/>
					</linearGradient>
					<path style="fill:url(#SVGID_00000031179772752684246090000018140175693124333980_);" d="M1051.82,331.41
						c-0.74,16.49-3.28,29.47-5.5,38.33c-2.54,10.15-4.12,12.73-6.07,14.78c-2.93,3.09-7.26,5.58-31.2,10.18
						c-13.03,2.5-14.68,2.33-15.03,3.59c-1.72,6.15,32.21,29.23,68.7,26.06c22.33-1.94,43.18-13.51,42.29-20.22
						c-0.89-6.75-23.22-4.35-29.18-16.79c-4.14-8.66,1.64-20.32,8.25-29.89C1078.8,346.1,1057.12,342.77,1051.82,331.41z"/>
					<g>
						
							<linearGradient id="SVGID_00000026135880463541072410000010583831024738528655_" gradientUnits="userSpaceOnUse" x1="-574.4724" y1="166.3012" x2="-616.4674" y2="59.6413" gradientTransform="matrix(-0.9988 -0.0496 -0.0496 0.9988 461.301 219.5342)">
							<stop  offset="0" style="stop-color:#311944"/>
							<stop  offset="1" style="stop-color:#6B3976"/>
						</linearGradient>
						<path style="fill:url(#SVGID_00000026135880463541072410000010583831024738528655_);" d="M1092.62,340.13
							c5.6-6.67,6.57-18.78,0.95-26.78c-4.83-6.88-12.95-8.25-17.8-9.08c-14.07-2.39-32.26,2.57-39.17,15.27
							c-4.09,7.53,3.01,24,4.11,26.95c1.24,3.34,3.74,4.59,5.98,7.19c3.1,3.6,7.95,9.31,15.86,18.86c0.8-2.65,1.96-5.92,3.73-9.44
							c0.68-1.35,3.4-6.64,7.33-10.93C1081.46,343.56,1087.31,346.45,1092.62,340.13z"/>
						
							<linearGradient id="SVGID_00000142158586437772197250000003965660272639453856_" gradientUnits="userSpaceOnUse" x1="777.7485" y1="127.6675" x2="775.8171" y2="283.2726" gradientTransform="matrix(0.9999 -0.0116 0.0116 0.9999 288.2834 220.4656)">
							<stop  offset="0" style="stop-color:#FFC444"/>
							<stop  offset="0.9964" style="stop-color:#F36F56"/>
						</linearGradient>
						<path style="fill:url(#SVGID_00000142158586437772197250000003965660272639453856_);" d="M1050.98,364.25
							c0,0,8.49,15.77,27.09,15.55c16.65-0.19,21.07-37.28,10.89-45.74c-3.4-2.82-10.42-4.3-16.27-2.99
							c-3.45,0.77-4.68,2.12-10.35,3.27c-5.23,1.06-6.65,0.41-8.28,1.64c-2.03,1.53-3.67,5.47-1,16.53c-3-3.37-6.73-4.81-9.49-3.68
							c-0.44,0.18-1.62,0.9-2.33,2.04C1038.71,354.99,1042.3,360.63,1050.98,364.25z"/>
						
							<linearGradient id="SVGID_00000080181797822841062180000001594619724714738345_" gradientUnits="userSpaceOnUse" x1="-587.3005" y1="171.4094" x2="-629.3391" y2="64.6391" gradientTransform="matrix(-0.9988 -0.0496 -0.0496 0.9988 461.301 219.5342)">
							<stop  offset="0" style="stop-color:#311944"/>
							<stop  offset="1" style="stop-color:#6B3976"/>
						</linearGradient>
						<path style="fill:url(#SVGID_00000080181797822841062180000001594619724714738345_);" d="M1053.45,333.72
							c0.77,0.64-1.84,3.49-2.25,7.71c-0.79,8.18,6.98,18.48,15.41,19.76c4.98,0.76,6.52-2.18,14.84-2.62
							c5.16-0.27,9.39,0.61,12.04,1.34c2.12,9.14-0.81,17.97-7.04,21.82c-6.71,4.14-14.84,0.98-18.24-0.35
							c-2.27-0.88-9.56-3.7-13.07-10.71c-3.66-7.3,0.53-11.36-3.84-16.4c-2.21-2.54-5.22-3.75-7.96-8.59
							c-0.74-1.31-1.22-2.47-1.52-3.24C1046.36,338.15,1052.33,332.79,1053.45,333.72z"/>
						
							<linearGradient id="SVGID_00000171699433121514358010000007534330093797950594_" gradientUnits="userSpaceOnUse" x1="-628.4436" y1="107.0766" x2="-626.2573" y2="126.5668" gradientTransform="matrix(-0.9988 -0.0496 -0.0496 0.9988 461.301 219.5342)">
							<stop  offset="0" style="stop-color:#FFC444"/>
							<stop  offset="1" style="stop-color:#F36F56"/>
						</linearGradient>
						<path style="fill:url(#SVGID_00000171699433121514358010000007534330093797950594_);" d="M1087.29,362.93
							c0,0-3.68,1.68-9.86,1c-0.3-0.03-0.64,0.04-0.68,0.19c-0.17,0.58,3.66,3.43,7.38,2.59c2.64-0.59,4.79-2.95,4.48-3.59
							C1088.47,362.85,1087.88,362.86,1087.29,362.93z"/>
					</g>
				</g>
				
					<linearGradient id="SVGID_00000120518452104500536630000016901519469606951359_" gradientUnits="userSpaceOnUse" x1="908.3787" y1="692.618" x2="919.5473" y2="726.7067">
					<stop  offset="0" style="stop-color:#FFC444"/>
					<stop  offset="0.9964" style="stop-color:#F36F56"/>
				</linearGradient>
				<path style="fill:url(#SVGID_00000120518452104500536630000016901519469606951359_);" d="M883.07,703.9l16.7-0.93
					c0,0,18.29-15.31,26.62-14.35c8.33,0.95,20.78,6.73,22.3,7.95c1.52,1.21-4.56,8-10.63,7.34c-6.08-0.66-19.63,2.62-22.06,7.97
					c-2.42,5.35-12.95,8.59-14.74,5.45l-22.45,4.46L883.07,703.9z"/>
				
					<linearGradient id="SVGID_00000049914592559431873480000012034665466921040281_" gradientUnits="userSpaceOnUse" x1="751.7978" y1="728.209" x2="992.4067" y2="172.2558">
					<stop  offset="0" style="stop-color:#FF9085"/>
					<stop  offset="1" style="stop-color:#FB6FBB"/>
				</linearGradient>
				<path style="fill:url(#SVGID_00000049914592559431873480000012034665466921040281_);" d="M888.12,698.06
					c1.17,13.7-1.81,23-6.79,29.38c-22.07,28.28-97.07,16.72-141.65-21.16c-33-28.04-50.47-71.57-49.82-110.58
					c1.26-76.12,71.8-150.7,176.74-176.47c15.53,46.43,31.07,92.86,46.6,139.3c-64.69,0.99-104,49.76-98.17,84.57
					C819.36,669.03,849.61,692.36,888.12,698.06z"/>
				
					<linearGradient id="SVGID_00000047782384670127170550000000866077212008147104_" gradientUnits="userSpaceOnUse" x1="980.3987" y1="827.1446" x2="1221.0088" y2="271.1888">
					<stop  offset="0" style="stop-color:#FF9085"/>
					<stop  offset="1" style="stop-color:#FB6FBB"/>
				</linearGradient>
				<path style="opacity:0.3;fill:url(#SVGID_00000047782384670127170550000000866077212008147104_);" d="M1141.9,832.66
					c-34.03-14.52-33.83-44.57-65.62-57.11c-45.36-17.9-95.47,23.68-103.29,12.15c-8.14-12,51.71-48.78,43.75-85.06
					c-6.33-28.83-48.11-23.72-70.48-63.19c-21.23-37.44-0.65-72.05-19.44-85.06c-6.74-4.67-18.63-6.51-41.17,3.41
					c15.72,49.09,26.99,92.39,27.81,146.06c0.22,14.3,0.07,54.24,2.43,113.01c1.53,38.1,3.14,59.95,15.8,65.62
					c13.2,5.91,23.91-12.26,55.9-23.09c23.5-7.95,47.17-5.81,93.57-1.21c69.19,6.86,74.1,16.64,87.66,8.54
					c8.83-5.28,13.03-13.21,15.84-28.46C1170.77,839.76,1156.05,838.7,1141.9,832.66z"/>
			</g>
		</g>
		<g>
			<g>
				<g>
					<path class="st26" d="M962.45,1684.57c-192.65,6.84-385.23,14.64-577.74,23.39c-53.05,2.41-96.3-56.19-97.47-130.95
						c-0.26-16.91-0.52-33.81-0.78-50.72c-1.18-74.76,40.42-139.76,93.78-145.16c193.44-19.6,387.07-38.24,580.86-55.91
						C961.55,1445,962,1564.79,962.45,1684.57z"/>
					
						<linearGradient id="SVGID_00000067208808251963343420000000875923917549116843_" gradientUnits="userSpaceOnUse" x1="1916.1025" y1="1511.0005" x2="2721.0437" y2="1519.7977" gradientTransform="matrix(1 0 0 1 -1675.0461 0)">
						<stop  offset="0" style="stop-color:#AA80F9"/>
						<stop  offset="0.9964" style="stop-color:#6165D7"/>
					</linearGradient>
					<path style="fill:url(#SVGID_00000067208808251963343420000000875923917549116843_);" d="M881.2,1701.22
						c-163.06,7.27-326.07,15.23-489.01,23.87c-69.15,2.93-125.44-73.62-127.01-170.74c0-0.36-0.01-0.71-0.02-1.07
						c-1.55-97.12,52.55-182.02,122.13-189.25c163.8-20.2,327.76-39.72,491.87-58.54c8.64-0.83,108.88,7.82,108.92,18.48
						c0.03,10.61-93.48,19.04-102.05,19.82c-166.24,17.68-332.33,36.06-498.27,55.15c-56.18,5.51-100.09,73.95-98.87,152.56
						c0.01,0.36,0.01,0.71,0.02,1.07c1.23,78.61,46.91,140.31,102.8,137.61c163.03-9.76,326.13-18.83,489.29-27.22
						c8.54-0.39,108.24,10.01,108.26,20.67C989.29,1694.23,889.78,1700.87,881.2,1701.22z"/>
				</g>
				<g>
					<path class="st28" d="M2073.71,1672.64c-393.56-0.92-787.06,2.16-1180.44,9.23c-0.59-119.45-1.18-238.9-1.78-358.35
						c395.86,3.19,791.62,10.4,1187.24,21.62C2077.05,1454.3,2075.38,1563.47,2073.71,1672.64z"/>
					
						<linearGradient id="SVGID_00000140013677178191227850000005783328966222367873_" gradientUnits="userSpaceOnUse" x1="-5367.458" y1="544.0111" x2="-7535.9824" y2="342.4842" gradientTransform="matrix(1 0 0 1 -1675.0461 0)">
						<stop  offset="0" style="stop-color:#AA80F9"/>
						<stop  offset="0.9964" style="stop-color:#6165D7"/>
					</linearGradient>
					<path style="fill:url(#SVGID_00000140013677178191227850000005783328966222367873_);" d="M2088.26,1363.96
						c-402.85-10.9-805.83-17.64-1208.9-20.21c-8.18-0.05-14.85-8.67-14.9-19.24c-0.08-10.58,6.54-19.09,14.71-19.02
						c403.34,3.69,806.58,11.54,1209.64,23.56c6.8,0.2,12.17,8.18,12.02,17.8C2100.67,1356.48,2095.04,1364.14,2088.26,1363.96z"/>
					
						<linearGradient id="SVGID_00000013166697807326181080000013156178279349180820_" gradientUnits="userSpaceOnUse" x1="-5336.8525" y1="888.8271" x2="-7491.5" y2="688.5897" gradientTransform="matrix(1 0 0 1 -1675.0461 0)">
						<stop  offset="0" style="stop-color:#AA80F9"/>
						<stop  offset="0.9964" style="stop-color:#6165D7"/>
					</linearGradient>
					<path style="fill:url(#SVGID_00000013166697807326181080000013156178279349180820_);" d="M2083.2,1690.12
						c-400.76-0.44-801.45,3.26-1202,11.1c-8.09,0.16-14.76-8.29-14.81-18.86c-0.06-10.58,6.49-19.26,14.61-19.4
						c400.83-6.73,801.76-9.31,1202.74-7.75c6.76,0.02,12.11,7.86,11.96,17.48C2095.55,1682.33,2089.96,1690.12,2083.2,1690.12z"/>
				</g>
			</g>
			<g>
				
					<linearGradient id="SVGID_00000075163362019074268220000013590816412571425168_" gradientUnits="userSpaceOnUse" x1="2410.0884" y1="1580.6021" x2="2181.8564" y2="2349.3855" gradientTransform="matrix(1 0 0 1 -1675.0461 0)">
					<stop  offset="0" style="stop-color:#40447E"/>
					<stop  offset="0.9964" style="stop-color:#3C3B6B"/>
				</linearGradient>
				<path style="fill:url(#SVGID_00000075163362019074268220000013590816412571425168_);" d="M970,1695.51h-0.11l-18.25-0.14
					l-79.45,2.41l-469.19,16.36c-13.9,0.36-27.19,2.92-39.58,7.59c-54.05,20.36-90.83,78.5-86.78,145.56l0.07,0.87
					c4.45,74.2,57.47,134.25,122.26,143.44c6.68,0.97,13.54,1.36,20.44,1.18l392.83-15.34l62.21-2.44l23.96-0.93l69.1-3.07
					l14.44-0.95h0.11l4.92,0.2l10.02-0.21l0.29-2.85l1.15-12.6l0.14-1.52l0.93-10.26l22.12-241.61l1.4-15.3l0.65-7.29l0.61-5.78
					L970,1695.51z"/>
				<g>
					<path class="st28" d="M2075.62,1970.43l-1035.2,6.49c-86.13,0.54-157.41-49.62-159.63-112.24l-1.51-42.61
						c-2.23-63,65.98-115.25,152.76-116.5l1043.37-15L2075.62,1970.43z"/>
					
						<linearGradient id="SVGID_00000155848751575215036090000011658885269851573427_" gradientUnits="userSpaceOnUse" x1="2531.0247" y1="1833.9066" x2="3775.874" y2="1833.9066" gradientTransform="matrix(1 0 0 1 -1675.0461 0)">
						<stop  offset="0" style="stop-color:#40447E"/>
						<stop  offset="0.9964" style="stop-color:#3C3B6B"/>
					</linearGradient>
					<path style="fill:url(#SVGID_00000155848751575215036090000011658885269851573427_);" d="M2086.8,1985.16l-1090.32,6.37
						c-74.59,0.44-137.42-65.35-140.36-147l-0.03-0.9c-2.96-82.04,55.57-149.97,130.79-151.08l1099.8-16.26
						c7.81-0.12,14.15,6.54,14.15,14.86c0,8.31-6.33,15.14-14.14,15.25l-1098.88,15.29c-60.61,0.84-107.85,55.53-105.51,121.68
						l0.03,0.9c2.33,65.89,53.03,118.99,113.23,118.59l1091.23-7.31c7.75-0.05,14.04,6.54,14.04,14.73
						C2100.83,1978.45,2094.55,1985.12,2086.8,1985.16z"/>
				</g>
			</g>
			<g>
				
					<linearGradient id="SVGID_00000005267046886877011990000016256157943426352031_" gradientUnits="userSpaceOnUse" x1="2436.4304" y1="2119.582" x2="2164.8755" y2="3034.2957" gradientTransform="matrix(1 0 0 1 -1675.0461 0)">
					<stop  offset="0" style="stop-color:#40447E"/>
					<stop  offset="0.9964" style="stop-color:#3C3B6B"/>
				</linearGradient>
				<path style="fill:url(#SVGID_00000005267046886877011990000016256157943426352031_);" d="M984.66,2237.69l-17.13,0.57
					l-62.57,2.12l-33.37,1.15l-286.01,9.66l-12,0.43l-54.31,1.83l-86.99,2.94l-35.16,1.19c-11.03,0.22-21.69,2.55-31.82,6.79
					c-6.9,2.84-13.27,6.57-19.63,11.06c-42.99,30.46-72.32,96.47-72.32,172.26v1.15c0,103.41,54.86,190.07,124.04,193.23
					l570.34,15.91l36.28,1.01l1.98-20.22l0.99-9.81l33.68-336.11l2.37-19.36l2.55-20.98v-0.04l0.9-13.4l0.14-3.48L984.66,2237.69z"
					/>
				<g>
					<path class="st28" d="M2076.4,2259.38v348.79l-284.36,11.24l-722.33,28.48c-22.63,0.9-44.16-2.41-63.99-9.12
						c-62.86-21.37-107.41-77.33-107.41-144.78v-60.2c0-79.95,62.84-146.97,144.22-160.3c8.94-1.47,18.16-2.3,27.5-2.41l633.09-7.36
						L2076.4,2259.38z"/>
					
						<linearGradient id="SVGID_00000145018424482162601020000010726031158528097164_" gradientUnits="userSpaceOnUse" x1="873.1717" y1="2455.7668" x2="2099.8164" y2="2455.7668">
						<stop  offset="0" style="stop-color:#40447E"/>
						<stop  offset="0.9964" style="stop-color:#3C3B6B"/>
					</linearGradient>
					<path style="fill:url(#SVGID_00000145018424482162601020000010726031158528097164_);" d="M2099.82,2607.31
						c0,10.24-5.49,18.78-12.25,19.07l-272.76,11.17l-793.12,32.43c-19.04,0.79-36.47-3.52-53.28-12
						c-55.96-28.23-95.23-102.97-95.23-192.16v-1.26c0-115.51,66.47-210.29,148.43-211.8l0.49-0.04l22.82-0.25l666.31-6.99
						l376.35-4.04c0.04,0,0.04,0,0.07,0c6.72,0,12.18,8.42,12.18,18.66c0,10.24-5.49,18.74-12.25,18.81l-9.73,0.19l-380.65,5.05
						l-656.53,8.67l-18.48,0.26c-66.3,0.86-120.27,77.44-120.27,170.72v1.26c0,86.27,46.1,155.92,105.54,163.89
						c4.85,0.65,9.49,0.86,14.48,0.68l752.09-28.55l303.87-11.53l9.7-0.36C2094.35,2588.96,2099.82,2597.04,2099.82,2607.31z"/>
				</g>
				<g>
					<path class="st26" d="M967.54,2242.59L389.9,2255.6c-53.09,1.2-95.42-40.84-95.42-93.86v-35.97
						c0-53.03,42.33-98.65,95.42-101.97l577.64-36.06V2242.59z"/>
					
						<linearGradient id="SVGID_00000087404047116295406700000015613674682807211952_" gradientUnits="userSpaceOnUse" x1="1923.8121" y1="2116.3638" x2="2725.3733" y2="2125.1238" gradientTransform="matrix(1 0 0 1 -1675.0461 0)">
						<stop  offset="0" style="stop-color:#FFC444"/>
						<stop  offset="0.9964" style="stop-color:#F36F56"/>
					</linearGradient>
					<path style="fill:url(#SVGID_00000087404047116295406700000015613674682807211952_);" d="M886.26,2254.14l-489.12,13.68
						c-69.21,1.41-124.31-53.5-124.31-122.39v-0.76c0-68.88,55.1-128.47,124.31-132.93l489.12-38.25
						c8.58-0.54,108.08,5.89,108.08,13.43s-92.94,13.25-101.46,13.76l-495.74,35.82c-55.91,3.36-100.62,51.41-100.62,107.17v0.76
						c0,55.75,44.7,100.01,100.62,98.63L886.26,2227c8.52-0.22,108.08,7.44,108.08,14.98
						C994.34,2249.52,894.83,2253.94,886.26,2254.14z"/>
				</g>
				<g>
					<polygon class="st28" points="2076.4,1997.29 2076.4,2229.57 1716.29,2232.91 1045.68,2239.09 991.02,2239.59 967.44,2239.8 
						904.86,2240.38 898.31,2240.45 898.31,1986.34 961.99,1986.44 962.07,1986.44 994.25,1987 997.3,1987.15 1279.36,1989.83 					
						"/>
					
						<linearGradient id="SVGID_00000084508540596206919950000004163650601888782506_" gradientUnits="userSpaceOnUse" x1="-5300.8184" y1="1206.7318" x2="-7453.1729" y2="1006.7076" gradientTransform="matrix(1 0 0 1 -1675.0461 0)">
						<stop  offset="0" style="stop-color:#FFC444"/>
						<stop  offset="0.9964" style="stop-color:#F36F56"/>
					</linearGradient>
					<path style="fill:url(#SVGID_00000084508540596206919950000004163650601888782506_);" d="M2087.58,2010.52l-1201.32-9.9
						c-8.12-0.07-14.71-6.2-14.71-13.7c0-7.5,6.59-13.51,14.71-13.43l1201.32,12.28c6.75,0.07,12.22,5.66,12.22,12.49
						C2099.8,2005.09,2094.33,2010.58,2087.58,2010.52z"/>
					
						<linearGradient id="SVGID_00000152962305821291235120000004363121925882678916_" gradientUnits="userSpaceOnUse" x1="-6998.0552" y1="1447.8872" x2="-9150.3574" y2="1247.8679">
						<stop  offset="0" style="stop-color:#FFC444"/>
						<stop  offset="0.9964" style="stop-color:#F36F56"/>
					</linearGradient>
					<path style="fill:url(#SVGID_00000152962305821291235120000004363121925882678916_);" d="M2099.82,2229.16
						c0,6.79-5.46,12.3-12.18,12.3c-0.03,0-0.03,0-0.07,0l-376.45,4.04l-666.41,6.92l-23.02,0.27l-0.9,0.9l-134.55,2.23h-0.14
						c-6.54,0-12.03-4.76-13.9-10.22c-0.32-1.04-0.54-2.54-0.61-3.65c-0.04-0.25-0.04-0.71-0.04-1c0-7.51,6.57-13.86,14.69-13.86
						h0.47l11.71-0.14l69.1-0.59l756.13-6.22l354.18-2.95l9.73-0.17C2094.32,2216.94,2099.82,2222.33,2099.82,2229.16z"/>
				</g>
				<path class="st38" d="M841.31,2611.94l-128.98-7.37c-31.17-88.86-28.81-174.54,0-278.79l128.98,0.39
					C815.46,2432.6,819.39,2526.73,841.31,2611.94z"/>
				
					<linearGradient id="SVGID_00000129206888059579447660000009056521760300832142_" gradientUnits="userSpaceOnUse" x1="2186.1863" y1="2317.5815" x2="2130.0142" y2="2234.4177" gradientTransform="matrix(1 0 0 1 -1675.0461 0)">
					<stop  offset="0" style="stop-color:#FFC444"/>
					<stop  offset="0.9964" style="stop-color:#F36F56"/>
				</linearGradient>
				<path style="opacity:0.3;fill:url(#SVGID_00000129206888059579447660000009056521760300832142_);" d="M573.96,2265.82
					l-4.1-160.88l-148.06,162.99c0,0-80.01,43.12-66.26,118.84l91.53-36.41l81.3,28.17C528.36,2378.53,530.39,2299,573.96,2265.82z"
					/>
				
					<linearGradient id="SVGID_00000116202527882818026780000017746020102413136521_" gradientUnits="userSpaceOnUse" x1="498.5688" y1="2364.9924" x2="627.4341" y2="2792.9216">
					<stop  offset="3.597120e-03" style="stop-color:#E38DDD"/>
					<stop  offset="1" style="stop-color:#9571F6"/>
				</linearGradient>
				<path style="fill:url(#SVGID_00000116202527882818026780000017746020102413136521_);" d="M405.15,2115l164.71-10.07
					c0,0-77.46,58.86-41.5,273.59c0,0-70.41-22.37-101.04-60.66l-71.78,68.9C355.53,2386.77,311.7,2195.85,405.15,2115z"/>
			</g>
		</g>
		<g>
			
				<linearGradient id="SVGID_00000106121146026158079340000009682496997956724101_" gradientUnits="userSpaceOnUse" x1="0" y1="2061.6311" x2="476.78" y2="2061.6311">
				<stop  offset="0" style="stop-color:#AA80F9"/>
				<stop  offset="0.9964" style="stop-color:#6165D7"/>
			</linearGradient>
			<path style="fill:url(#SVGID_00000106121146026158079340000009682496997956724101_);" d="M468.24,1431.62
				c-6.46-2.35-13.38,0.35-15.45,6.03L0.59,2677.1c-2.07,5.68,1.48,12.2,7.95,14.55c6.46,2.35,13.38-0.35,15.45-6.03l452.2-1239.45
				C478.26,1440.48,474.71,1433.97,468.24,1431.62z"/>
			
				<linearGradient id="SVGID_00000098215987578996694370000001999565727172716715_" gradientUnits="userSpaceOnUse" x1="399.0645" y1="1600.3344" x2="704.3608" y2="1600.3344">
				<stop  offset="0" style="stop-color:#AA80F9"/>
				<stop  offset="0.9964" style="stop-color:#6165D7"/>
			</linearGradient>
			<path style="fill:url(#SVGID_00000098215987578996694370000001999565727172716715_);" d="M704.36,1601.01
				c0,6.57-5.33,11.9-11.9,11.9h-281.5c-6.57,0-11.9-5.33-11.9-11.9v-1.35c0-6.57,5.33-11.9,11.9-11.9h281.5
				c6.57,0,11.9,5.33,11.9,11.9V1601.01z"/>
			
				<linearGradient id="SVGID_00000111869626642994960340000013516794661367322010_" gradientUnits="userSpaceOnUse" x1="316.4549" y1="1826.6128" x2="621.7512" y2="1826.6128">
				<stop  offset="0" style="stop-color:#AA80F9"/>
				<stop  offset="0.9964" style="stop-color:#6165D7"/>
			</linearGradient>
			<path style="fill:url(#SVGID_00000111869626642994960340000013516794661367322010_);" d="M621.75,1827.29
				c0,6.57-5.33,11.9-11.9,11.9h-281.5c-6.57,0-11.9-5.33-11.9-11.9v-1.35c0-6.57,5.33-11.9,11.9-11.9h281.5
				c6.57,0,11.9,5.33,11.9,11.9V1827.29z"/>
			
				<linearGradient id="SVGID_00000182491490512575773100000012722410409367927462_" gradientUnits="userSpaceOnUse" x1="233.8453" y1="2056.4829" x2="539.1415" y2="2056.4829">
				<stop  offset="0" style="stop-color:#AA80F9"/>
				<stop  offset="0.9964" style="stop-color:#6165D7"/>
			</linearGradient>
			<path style="fill:url(#SVGID_00000182491490512575773100000012722410409367927462_);" d="M539.14,2057.16
				c0,6.57-5.33,11.9-11.9,11.9h-281.5c-6.57,0-11.9-5.33-11.9-11.9v-1.35c0-6.57,5.33-11.9,11.9-11.9h281.5
				c6.57,0,11.9,5.33,11.9,11.9V2057.16z"/>
			
				<linearGradient id="SVGID_00000008837422740933054960000009266998928354664360_" gradientUnits="userSpaceOnUse" x1="147.6439" y1="2293.5366" x2="452.9403" y2="2293.5366">
				<stop  offset="0" style="stop-color:#AA80F9"/>
				<stop  offset="0.9964" style="stop-color:#6165D7"/>
			</linearGradient>
			<path style="fill:url(#SVGID_00000008837422740933054960000009266998928354664360_);" d="M452.94,2294.21
				c0,6.57-5.33,11.9-11.9,11.9h-281.5c-6.57,0-11.9-5.33-11.9-11.9v-1.35c0-6.57,5.33-11.9,11.9-11.9h281.5
				c6.57,0,11.9,5.33,11.9,11.9V2294.21z"/>
			
				<linearGradient id="SVGID_00000132087162146505469410000001724618404399527322_" gradientUnits="userSpaceOnUse" x1="65.0343" y1="2519.8149" x2="370.3307" y2="2519.8149">
				<stop  offset="0" style="stop-color:#AA80F9"/>
				<stop  offset="0.9964" style="stop-color:#6165D7"/>
			</linearGradient>
			<path style="fill:url(#SVGID_00000132087162146505469410000001724618404399527322_);" d="M370.33,2520.49
				c0,6.57-5.33,11.9-11.9,11.9H76.93c-6.57,0-11.9-5.33-11.9-11.9v-1.35c0-6.57,5.33-11.9,11.9-11.9h281.5
				c6.57,0,11.9,5.33,11.9,11.9V2520.49z"/>
			
				<linearGradient id="SVGID_00000027592668994037226720000017028801078340339628_" gradientUnits="userSpaceOnUse" x1="274.3645" y1="2074.4739" x2="766.7799" y2="2074.4739">
				<stop  offset="0" style="stop-color:#AA80F9"/>
				<stop  offset="0.9964" style="stop-color:#6165D7"/>
			</linearGradient>
			<path style="fill:url(#SVGID_00000027592668994037226720000017028801078340339628_);" d="M757.96,1423.04
				c-6.67-2.43-13.82,0.36-15.96,6.24L274.98,2710.87c-2.14,5.88,1.53,12.61,8.21,15.04c6.67,2.43,13.82-0.36,15.96-6.24
				l467.03-1281.59C768.31,1432.2,764.64,1425.47,757.96,1423.04z"/>
		</g>
		<g>
			
				<linearGradient id="SVGID_00000065073561781112499670000010447582908593384378_" gradientUnits="userSpaceOnUse" x1="1683.9916" y1="2330.8726" x2="2099.7266" y2="2330.8726">
				<stop  offset="0" style="stop-color:#40447E"/>
				<stop  offset="0.9964" style="stop-color:#3C3B6B"/>
			</linearGradient>
			<path style="opacity:0.3;fill:url(#SVGID_00000065073561781112499670000010447582908593384378_);" d="M2076.4,2279.17v310.4
				l10.45-0.36c6.75-0.25,12.61,7.83,12.61,18.1c0,10.24-5.31,18.78-12.07,19.07l-272.67,11.17c-7.61-5.71-14.93-11.78-22.01-18.14
				c-6.5-5.85-12.8-11.96-18.83-18.32c-55.67-58.69-89.89-137.96-89.89-225.06c0-31.89,4.6-62.71,13.19-91.84
				c1.97-6.93,4.2-13.76,6.68-20.47c2.23-6.11,4.63-12.1,7.26-18.03c1.87-4.31,3.84-8.58,5.89-12.79c2.12-4.31,4.31-8.58,6.65-12.79
				c17.92-32.9,41.3-62.42,68.96-87.31c59.95-66.63,146.07-108.61,242.51-108.61c14.22,0,30.49,0.9,41.27,2.69v190.29l10.45-0.07
				c6.75-0.07,12.61,5.42,12.61,12.25c0,6.79-5.28,12.39-12,12.5c6.72,0,12.27,8.22,12.27,18.46c0,10.24-6.17,18.64-12.92,18.71
				L2076.4,2279.17z"/>
			<g>
				
					<linearGradient id="SVGID_00000044868567174120765560000015139715747842288774_" gradientUnits="userSpaceOnUse" x1="1719.9304" y1="2376.0413" x2="2374.271" y2="2376.0413">
					<stop  offset="0" style="stop-color:#444B8C"/>
					<stop  offset="0.9964" style="stop-color:#26264F"/>
				</linearGradient>
				<circle style="fill:url(#SVGID_00000044868567174120765560000015139715747842288774_);" cx="2047.1" cy="2376.04" r="327.17"/>
				<g>
					
						<linearGradient id="SVGID_00000031173221748124226950000013643474420381981598_" gradientUnits="userSpaceOnUse" x1="2120.8071" y1="2183.3696" x2="1986.3887" y2="2643.9519">
						<stop  offset="0" style="stop-color:#AA80F9"/>
						<stop  offset="0.9964" style="stop-color:#6165D7"/>
					</linearGradient>
					
						<circle style="fill:url(#SVGID_00000031173221748124226950000013643474420381981598_);" cx="2071.78" cy="2351.36" r="327.17"/>
					
						<linearGradient id="SVGID_00000137853164627523340240000006248935361887988147_" gradientUnits="userSpaceOnUse" x1="1767.1726" y1="2351.3618" x2="2376.3862" y2="2351.3618">
						<stop  offset="0" style="stop-color:#AA80F9"/>
						<stop  offset="0.9964" style="stop-color:#6165D7"/>
					</linearGradient>
					<path style="fill:url(#SVGID_00000137853164627523340240000006248935361887988147_);" d="M2376.39,2351.36
						c0,168.24-136.37,304.61-304.61,304.61c-59.98,0-115.94-17.35-163.08-47.32c-85.07-53.99-141.53-149.03-141.53-257.28
						c0-168.24,136.37-304.61,304.61-304.61c2.82,0,5.6,0.03,8.39,0.12C2244.53,2051.32,2376.39,2185.94,2376.39,2351.36z"/>
					<g>
						<polygon class="st52" points="2071.78,2211.39 1798.22,2294.77 2071.78,2378.16 2345.34,2294.77 						"/>
						<path class="st52" d="M2071.78,2407.39l-172.17-52.48v119.89c0,19.68,13.76,36.7,33.01,40.78
							c92.46,19.6,181.37,20.21,266.5,0.64c18.86-4.34,32.15-21.23,32.15-40.58v-116.86L2071.78,2407.39z"/>
						<path class="st52" d="M1861.58,2457.12c-14.96,6.64-28.04,6.78-39.24,0.42c-3.28-1.86-4.91-5.69-4.16-9.38l24.35-121.06
							l24.16,120.15C1867.51,2451.32,1865.38,2455.43,1861.58,2457.12z"/>
						<polygon class="st52" points="2071.78,2282.42 1838.98,2307.16 1838.98,2347.54 1845.88,2347.54 1846.59,2312.15 						"/>
					</g>
					<path class="st53" d="M2376.39,2351.36c0,168.24-136.37,304.61-304.61,304.61c-59.98,0-115.94-17.35-163.08-47.32
						c28.64-77.92,111.46-161.57,197.18-213.99c158.69-97.02,38.1-272.32-25.71-347.78
						C2244.53,2051.32,2376.39,2185.94,2376.39,2351.36z"/>
				</g>
			</g>
		</g>
	</g>
</g>
</svg>
