<?xml version="1.0" encoding="utf-8"?>
<!-- Generator: $$$/GeneralStr/196=Adobe Illustrator 27.6.0, SVG Export Plug-In . SVG Version: 6.00 Build 0)  -->
<svg version="1.1" xmlns="http://www.w3.org/2000/svg" xmlns:xlink="http://www.w3.org/1999/xlink" x="0px" y="0px"
	 viewBox="0 0 2430.5 3176.43" style="enable-background:new 0 0 2430.5 3176.43;" xml:space="preserve">
<style type="text/css">
	.st0{fill:url(#SVGID_1_);}
	.st1{fill:url(#SVGID_00000085958431141933062020000001307386645080024466_);}
	.st2{fill:url(#SVGID_00000074410724612261334180000008598174225513735555_);}
	.st3{fill:url(#SVGID_00000075873752762993308280000009368894418697478062_);}
	.st4{fill:url(#SVGID_00000125603492702931739620000001828428495411075503_);}
	.st5{opacity:0.3;}
	.st6{fill:url(#SVGID_00000108276771359413912170000015435808852295061158_);}
	.st7{fill:url(#SVGID_00000181080105375915175820000010294014229108804494_);}
	.st8{opacity:0.3;fill:url(#SVGID_00000002345419884906895030000012916869401490362245_);}
	.st9{fill:url(#SVGID_00000170252819697953193560000010060811422452908457_);}
	.st10{fill:url(#SVGID_00000007392979080299080660000017795864582137581743_);}
	.st11{fill:url(#SVGID_00000086660539240613238510000009579348468101731258_);}
	.st12{fill:url(#SVGID_00000057110786675398096390000010421193400542549941_);}
	.st13{fill:url(#SVGID_00000044862480257083248330000015797802859678017705_);}
	.st14{fill:url(#SVGID_00000013153313119761855880000007254230256550801807_);}
	.st15{fill:url(#SVGID_00000031202193236523249630000013626743674443480737_);}
	.st16{fill:url(#SVGID_00000037684169615983631750000014269806175123331516_);}
	.st17{fill:url(#SVGID_00000021826701876108249840000012243964318202554780_);}
	.st18{opacity:0.32;fill:url(#SVGID_00000114790750294622684000000015950921262150880916_);}
</style>
<g id="Background">
</g>
<g id="Illustration">
	<g>
		<g>
			<g>
				
					<linearGradient id="SVGID_1_" gradientUnits="userSpaceOnUse" x1="-1660.0579" y1="295.2996" x2="-1312.0013" y2="295.2996" gradientTransform="matrix(-0.8471 -0.5314 -0.5314 0.8471 734.9407 182.9364)">
					<stop  offset="0" style="stop-color:#444B8C"/>
					<stop  offset="0.9964" style="stop-color:#26264F"/>
				</linearGradient>
				<path class="st0" d="M1833.37,993.48c0,0,171.9,155.1,71.92,445.76c-9.31,27.08-44.62,33.66-63.18,11.86l-118.24-138.87
					c-18.96-22.26-27.63-51.5-23.89-80.5l19.21-148.9L1833.37,993.48z"/>
				
					<linearGradient id="SVGID_00000054223983395852964400000010139334341577296059_" gradientUnits="userSpaceOnUse" x1="-971.8761" y1="295.3065" x2="-623.824" y2="295.3065" gradientTransform="matrix(-0.8471 -0.5314 -0.5314 0.8471 734.9407 182.9364)">
					<stop  offset="0" style="stop-color:#444B8C"/>
					<stop  offset="0.9964" style="stop-color:#26264F"/>
				</linearGradient>
				<path style="fill:url(#SVGID_00000054223983395852964400000010139334341577296059_);" d="M1461.81,760.4
					c0,0-214.46-87.26-432.63,129.25c-20.32,20.17-10.89,54.82,16.82,62.05l176.49,46.01c28.3,7.38,58.39,2.47,82.87-13.53
					l125.7-82.1L1461.81,760.4z"/>
			</g>
			<g>
				
					<linearGradient id="SVGID_00000098900502836170204960000013605435120225567407_" gradientUnits="userSpaceOnUse" x1="-1660.0575" y1="270.8137" x2="-1312.001" y2="270.8137" gradientTransform="matrix(-0.8471 -0.5314 -0.5314 0.8471 734.9407 182.9364)">
					<stop  offset="0" style="stop-color:#AA80F9"/>
					<stop  offset="0.9964" style="stop-color:#6165D7"/>
				</linearGradient>
				<path style="fill:url(#SVGID_00000098900502836170204960000013605435120225567407_);" d="M1846.38,972.73
					c0,0,171.9,155.1,71.92,445.76c-9.31,27.08-44.62,33.66-63.18,11.86l-118.24-138.87c-18.96-22.27-27.63-51.5-23.89-80.5
					l19.21-148.9L1846.38,972.73z"/>
				
					<linearGradient id="SVGID_00000123426181830119853650000011146118498755246211_" gradientUnits="userSpaceOnUse" x1="1161.3016" y1="910.7188" x2="1771.4619" y2="599.4119">
					<stop  offset="0" style="stop-color:#AA80F9"/>
					<stop  offset="0.9964" style="stop-color:#6165D7"/>
				</linearGradient>
				<path style="fill:url(#SVGID_00000123426181830119853650000011146118498755246211_);" d="M1474.82,739.66
					c0,0-214.46-87.26-432.63,129.25c-20.32,20.17-10.89,54.82,16.82,62.05l176.49,46.01c28.3,7.38,58.39,2.47,82.87-13.52
					l125.7-82.1L1474.82,739.66z"/>
			</g>
			
				<linearGradient id="SVGID_00000147905665961197185140000011227486080321966264_" gradientUnits="userSpaceOnUse" x1="-1344.9464" y1="40.5125" x2="-601.228" y2="-742.2285" gradientTransform="matrix(-0.8471 -0.5314 -0.5314 0.8471 734.9407 182.9364)">
				<stop  offset="0" style="stop-color:#FFC444"/>
				<stop  offset="0.9964" style="stop-color:#F36F56"/>
			</linearGradient>
			<path style="fill:url(#SVGID_00000147905665961197185140000011227486080321966264_);" d="M1586.97,289.25
				c190.83-240.42,555.06-201.3,555.3-200.88c0.47,0.03,194.21,310.96,60.82,587.38c-120.99,250.73-428.69,457.07-487.96,495.19
				c-6.38,4.1-16.82,9.9-21.53,3.96c-91.61-115.5-204.73-182.42-334.72-209.85c-7.19-1.52-6.29-13.28-5.4-20.58
				C1361.84,875.46,1413.57,507.7,1586.97,289.25z"/>
			<g class="st5">
				
					<linearGradient id="SVGID_00000012432618720190057430000000446243167364775843_" gradientUnits="userSpaceOnUse" x1="-1405.2756" y1="-16.8097" x2="-661.5494" y2="-799.559" gradientTransform="matrix(-0.8471 -0.5314 -0.5314 0.8471 734.9407 182.9364)">
					<stop  offset="0" style="stop-color:#FFC444"/>
					<stop  offset="0.9964" style="stop-color:#F36F56"/>
				</linearGradient>
				<path style="fill:url(#SVGID_00000012432618720190057430000000446243167364775843_);" d="M1761.38,601.84
					c106.89-133.55,225-96.61,329.49-214.23c38.16-42.95,77.68-110.08,91.94-220.13c48.51,110.05,112.39,317.37,20.28,508.25
					c-120.99,250.73-428.69,457.07-487.96,495.19c-6.38,4.1-16.82,9.9-21.53,3.96c-46.28-58.35-98.06-104.28-154.72-139.01
					c42.23-31.8,71.36-65.38,92.18-96.69C1715.02,812.92,1663.99,723.52,1761.38,601.84z"/>
			</g>
			
				<linearGradient id="SVGID_00000093139042363793604940000014883962719495349160_" gradientUnits="userSpaceOnUse" x1="-1448.8864" y1="-682.4147" x2="-834.9754" y2="-682.4147" gradientTransform="matrix(-0.8471 -0.5314 -0.5314 0.8471 734.9407 182.9364)">
				<stop  offset="0" style="stop-color:#AA80F9"/>
				<stop  offset="0.9964" style="stop-color:#6165D7"/>
			</linearGradient>
			<path style="fill:url(#SVGID_00000093139042363793604940000014883962719495349160_);" d="M2020.28,282.82
				c-89.91-56.4-198.26-104.5-291.4-113.1c163.99-91.93,354.83-85.79,402.28-82.37c7.03,0.51,13.33,4.46,16.85,10.57
				c23.73,41.24,112.3,210.38,100.92,398.03C2208.01,424.07,2110.19,339.22,2020.28,282.82z"/>
			
				<linearGradient id="SVGID_00000133504527999973617000000016022295825407360400_" gradientUnits="userSpaceOnUse" x1="-1365.4088" y1="-568.8337" x2="-1086.77" y2="-862.0926" gradientTransform="matrix(-0.8471 -0.5314 -0.5314 0.8471 734.9407 182.9364)">
				<stop  offset="0" style="stop-color:#AA80F9"/>
				<stop  offset="0.9964" style="stop-color:#6165D7"/>
			</linearGradient>
			<path style="opacity:0.3;fill:url(#SVGID_00000133504527999973617000000016022295825407360400_);" d="M2182.81,167.49
				c0.23,0.51,0.45,1.03,0.68,1.55c0.39,0.88,0.77,1.76,1.16,2.65c0.39,0.89,0.77,1.78,1.16,2.68c0.37,0.85,0.74,1.71,1.1,2.57
				c0.41,0.95,0.82,1.92,1.22,2.89c0.35,0.83,0.7,1.66,1.05,2.5c0.43,1.02,0.86,2.05,1.29,3.09c0.33,0.81,0.67,1.61,1,2.43
				c0.45,1.09,0.89,2.19,1.34,3.29c0.32,0.78,0.64,1.57,0.95,2.35c0.47,1.16,0.93,2.32,1.4,3.49c0.3,0.76,0.6,1.51,0.9,2.28
				c0.48,1.22,0.96,2.44,1.44,3.68c0.29,0.74,0.58,1.49,0.87,2.24c0.49,1.27,0.98,2.55,1.47,3.83c0.28,0.73,0.55,1.45,0.83,2.19
				c0.5,1.33,1,2.67,1.51,4.02c0.26,0.7,0.52,1.41,0.78,2.12c0.51,1.39,1.02,2.78,1.53,4.19c0.25,0.69,0.5,1.38,0.75,2.07
				c0.52,1.45,1.04,2.9,1.56,4.36c0.24,0.67,0.47,1.33,0.71,2c0.53,1.5,1.05,3.01,1.57,4.53c0.23,0.65,0.45,1.31,0.67,1.96
				c0.53,1.55,1.06,3.11,1.58,4.68c0.21,0.64,0.43,1.28,0.64,1.92c0.53,1.6,1.06,3.2,1.59,4.82c0.2,0.63,0.41,1.25,0.61,1.88
				c0.53,1.65,1.06,3.31,1.59,4.97c0.19,0.61,0.38,1.22,0.57,1.83c0.53,1.7,1.06,3.41,1.59,5.13c0.18,0.59,0.36,1.18,0.54,1.77
				c0.53,1.75,1.06,3.5,1.59,5.27c0.17,0.58,0.34,1.15,0.51,1.73c0.53,1.8,1.06,3.61,1.58,5.43c0.16,0.55,0.31,1.1,0.47,1.65
				c0.53,1.86,1.05,3.72,1.57,5.59c0.15,0.53,0.29,1.06,0.44,1.59c0.52,1.9,1.04,3.81,1.55,5.73c0.14,0.52,0.27,1.04,0.41,1.56
				c0.51,1.94,1.02,3.89,1.52,5.85c0.13,0.51,0.26,1.02,0.39,1.53c0.5,1.99,1,3.98,1.49,5.98c0.12,0.49,0.24,0.98,0.36,1.46
				c0.49,2.03,0.98,4.07,1.46,6.12c0.11,0.47,0.22,0.95,0.33,1.42c0.48,2.08,0.96,4.16,1.43,6.26c0.1,0.45,0.2,0.9,0.3,1.35
				c0.47,2.13,0.94,4.26,1.39,6.4c0.09,0.43,0.18,0.87,0.27,1.3c0.46,2.17,0.91,4.35,1.35,6.53c0.08,0.41,0.16,0.82,0.24,1.22
				c0.44,2.22,0.88,4.44,1.3,6.68c0.07,0.39,0.14,0.78,0.22,1.16c0.42,2.26,0.84,4.53,1.25,6.81c0.06,0.36,0.13,0.73,0.19,1.09
				c0.41,2.31,0.8,4.62,1.19,6.94c0.06,0.35,0.11,0.7,0.17,1.05c0.38,2.35,0.76,4.7,1.12,7.07c0.05,0.31,0.09,0.63,0.14,0.94
				c0.36,2.4,0.72,4.81,1.06,7.23c0.04,0.28,0.08,0.57,0.12,0.85c0.34,2.45,0.67,4.91,0.99,7.38c0.03,0.26,0.06,0.51,0.1,0.77
				c0.32,2.5,0.62,5.01,0.91,7.53c0.02,0.21,0.05,0.43,0.07,0.64c0.29,2.56,0.57,5.13,0.84,7.71c0.02,0.17,0.03,0.34,0.05,0.51
				c0.26,2.62,0.52,5.25,0.75,7.89c0.01,0.13,0.02,0.25,0.03,0.38c0.24,2.69,0.46,5.38,0.66,8.09c0,0.06,0.01,0.13,0.01,0.19
				c1.88,25.3,2.26,51.27,0.66,77.6c-26.15-45.94-75.56-97.17-131.27-142.89C2146.21,310.72,2171.9,251.67,2182.81,167.49z"/>
			
				<linearGradient id="SVGID_00000077286685712231013520000001834346981855166099_" gradientUnits="userSpaceOnUse" x1="-1389.426" y1="-265.8098" x2="-894.4418" y2="-265.8098" gradientTransform="matrix(-0.8471 -0.5314 -0.5314 0.8471 734.9407 182.9364)">
				<stop  offset="3.597120e-03" style="stop-color:#EBEFF2"/>
				<stop  offset="1" style="stop-color:#FFFFFF"/>
			</linearGradient>
			<path style="fill:url(#SVGID_00000077286685712231013520000001834346981855166099_);" d="M1633.87,433.08
				c-65.41,104.28-24.58,247.69,91.21,320.32s262.68,46.98,328.09-57.29c65.41-104.28,24.58-247.69-91.21-320.32
				C1846.18,303.15,1699.29,328.8,1633.87,433.08z"/>
			
				<linearGradient id="SVGID_00000072989176521318069140000004256936432224011685_" gradientUnits="userSpaceOnUse" x1="-1389.4258" y1="-257.6988" x2="-894.4426" y2="-257.6988" gradientTransform="matrix(-0.8471 -0.5314 -0.5314 0.8471 734.9407 182.9364)">
				<stop  offset="3.597120e-03" style="stop-color:#EBEFF2"/>
				<stop  offset="1" style="stop-color:#FFFFFF"/>
			</linearGradient>
			<path style="fill:url(#SVGID_00000072989176521318069140000004256936432224011685_);" d="M1761.38,601.84
				c87.23-108.98,181.92-104.44,270.59-163c59.25,76.2,70.91,178.03,21.2,257.26c-65.41,104.28-212.31,129.93-328.09,57.29
				c-9.47-5.94-18.43-12.36-26.88-19.19C1707.84,692.27,1723.21,649.54,1761.38,601.84z"/>
			
				<linearGradient id="SVGID_00000061443688292913311480000012977764993091767712_" gradientUnits="userSpaceOnUse" x1="-1065.011" y1="-424.0095" x2="-1186.6683" y2="-173.8085" gradientTransform="matrix(-0.8471 -0.5314 -0.5314 0.8471 734.9407 182.9364)">
				<stop  offset="3.597120e-03" style="stop-color:#EBEFF2"/>
				<stop  offset="1" style="stop-color:#FFFFFF"/>
			</linearGradient>
			<path style="fill:url(#SVGID_00000061443688292913311480000012977764993091767712_);" d="M1651.35,444.04
				c-59.96,95.58-22.53,227.04,83.61,293.62c106.13,66.58,240.78,43.07,300.74-52.52c59.96-95.58,22.53-227.04-83.61-293.62
				C1845.96,324.95,1711.31,348.46,1651.35,444.04z"/>
			
				<linearGradient id="SVGID_00000030451789341853988820000012672192902408687292_" gradientUnits="userSpaceOnUse" x1="-1357.5219" y1="48.7989" x2="-988.9775" y2="-489.0196" gradientTransform="matrix(-0.8471 -0.5314 -0.5314 0.8471 734.9407 182.9364)">
				<stop  offset="0" style="stop-color:#444B8C"/>
				<stop  offset="0.9964" style="stop-color:#26264F"/>
			</linearGradient>
			<path style="fill:url(#SVGID_00000030451789341853988820000012672192902408687292_);" d="M1676.12,459.58
				c-52.23,83.26-19.62,197.77,72.83,255.77c92.45,58,209.74,37.51,261.97-45.75c52.23-83.26,19.62-197.77-72.83-255.77
				C1845.64,355.84,1728.35,376.32,1676.12,459.58z"/>
			
				<linearGradient id="SVGID_00000047754917599957983770000004232682810788791980_" gradientUnits="userSpaceOnUse" x1="-1155.3064" y1="516.7087" x2="-1140.0029" y2="316.9976" gradientTransform="matrix(-0.8471 -0.5314 -0.5314 0.8471 734.9407 182.9364)">
				<stop  offset="0" style="stop-color:#FFC444"/>
				<stop  offset="0.9964" style="stop-color:#F36F56"/>
			</linearGradient>
			<path style="fill:url(#SVGID_00000047754917599957983770000004232682810788791980_);" d="M1351,960.86
				c-17.85,28.45,45.75,100.49,142.05,160.89c96.3,60.41,188.83,86.31,206.68,57.86c17.85-28.45-45.75-100.49-142.05-160.89
				C1461.38,958.32,1368.85,932.41,1351,960.86z"/>
			
				<linearGradient id="SVGID_00000141450941439785436220000001492286111966347917_" gradientUnits="userSpaceOnUse" x1="-1311.5779" y1="374.4509" x2="-972.3032" y2="374.4509" gradientTransform="matrix(-0.8471 -0.5314 -0.5314 0.8471 734.9407 182.9364)">
				<stop  offset="0" style="stop-color:#AA80F9"/>
				<stop  offset="0.9964" style="stop-color:#6165D7"/>
			</linearGradient>
			<path style="fill:url(#SVGID_00000141450941439785436220000001492286111966347917_);" d="M1504.46,1021.98l74.83,46.94
				c39.82,24.98,60.51,71.6,52.34,117.88l-7.76,43.92c-2.86,16.16-21.17,24.3-35.08,15.57l-248.17-155.67
				c-13.91-8.72-14.56-28.75-1.25-38.36l36.16-26.1C1413.66,998.66,1464.64,997.01,1504.46,1021.98z"/>
			
				<linearGradient id="SVGID_00000064319874941748246960000011381080499385370504_" gradientUnits="userSpaceOnUse" x1="-1119.3904" y1="367.6118" x2="-1202.7941" y2="618.5883" gradientTransform="matrix(-0.8471 -0.5314 -0.5314 0.8471 734.9407 182.9364)">
				<stop  offset="0" style="stop-color:#AA80F9"/>
				<stop  offset="0.9964" style="stop-color:#6165D7"/>
			</linearGradient>
			<path style="fill:url(#SVGID_00000064319874941748246960000011381080499385370504_);" d="M1327.01,1068.22
				c-16.84,26.85,33.93,89.03,113.4,138.88c79.47,49.85,157.55,68.5,174.39,41.65c16.84-26.85-33.93-89.03-113.4-138.88
				C1421.93,1060.02,1343.85,1041.38,1327.01,1068.22z"/>
			
				<linearGradient id="SVGID_00000126301739967202788000000012598518269926822052_" gradientUnits="userSpaceOnUse" x1="-1124.79" y1="383.8608" x2="-1188.1766" y2="574.6024" gradientTransform="matrix(-0.8471 -0.5314 -0.5314 0.8471 734.9407 182.9364)">
				<stop  offset="0" style="stop-color:#444B8C"/>
				<stop  offset="0.9964" style="stop-color:#26264F"/>
			</linearGradient>
			<path style="fill:url(#SVGID_00000126301739967202788000000012598518269926822052_);" d="M1361.55,1089.89
				c-12.8,20.41,25.79,67.66,86.19,105.55c60.4,37.89,119.74,52.06,132.54,31.66c12.8-20.41-25.79-67.66-86.19-105.55
				C1433.69,1083.66,1374.35,1069.48,1361.55,1089.89z"/>
			<g class="st5">
				
					<linearGradient id="SVGID_00000027584678216684321020000009927931004018703790_" gradientUnits="userSpaceOnUse" x1="-1380.4382" y1="33.097" x2="-1011.8926" y2="-504.7234" gradientTransform="matrix(-0.8471 -0.5314 -0.5314 0.8471 734.9407 182.9364)">
					<stop  offset="0" style="stop-color:#444B8C"/>
					<stop  offset="0.9964" style="stop-color:#26264F"/>
				</linearGradient>
				<path style="fill:url(#SVGID_00000027584678216684321020000009927931004018703790_);" d="M1761.38,601.84
					c74.19-92.69,153.77-103.26,230.46-140.37c49.17,61.13,59.36,143.92,19.08,208.13c-52.23,83.26-169.52,103.74-261.97,45.75
					c-13.51-8.48-25.74-18.17-36.61-28.79C1722.55,659.59,1737.5,631.69,1761.38,601.84z"/>
			</g>
		</g>
	</g>
	
		<linearGradient id="SVGID_00000029037671909124158720000003327222931391036088_" gradientUnits="userSpaceOnUse" x1="1164.3383" y1="1313.2421" x2="906.4504" y2="2840.4099">
		<stop  offset="0" style="stop-color:#FF9085"/>
		<stop  offset="0.7256" style="stop-color:#FB6FBB"/>
		<stop  offset="1" style="stop-color:#FB6FBB;stop-opacity:0"/>
	</linearGradient>
	<path style="opacity:0.32;fill:url(#SVGID_00000029037671909124158720000003327222931391036088_);" d="M209.13,3176.43l1608.7-39.9
		c0.22-485.7,73.45-1159.9-206.18-1489.09c-32.93-38.77-142.63-142.31-126.73-264.16c9.13-69.99,56.13-122.38,95.35-156.19
		c31.38-56.41-183.4-180.67-218.72-137.21c-89.8,10.27-220.86,40.14-316.89,140.46c-122.42,127.89-71.03,248.15-171.47,386.97
		c-142.34,196.71-331.52,120.54-542.22,264.16C206.49,1966.32-269.73,2519.33,209.13,3176.43z"/>
</g>
</svg>
